<svg width="32" height="32" viewBox="0 0 32 32" fill="none" xmlns="http://www.w3.org/2000/svg">
<path d="M24.0412 22.1557L29.7514 27.866L27.8658 29.7516L22.1556 24.0413C20.1024 25.684 17.4985 26.6667 14.6665 26.6667C8.0425 26.6667 2.6665 21.2907 2.6665 14.6667C2.6665 8.04266 8.0425 2.66666 14.6665 2.66666C21.2905 2.66666 26.6665 8.04266 26.6665 14.6667C26.6665 17.4987 25.6838 20.1025 24.0412 22.1557ZM21.3661 21.1664C22.9965 19.4861 23.9998 17.1941 23.9998 14.6667C23.9998 9.50999 19.8232 5.33332 14.6665 5.33332C9.50984 5.33332 5.33317 9.50999 5.33317 14.6667C5.33317 19.8233 9.50984 24 14.6665 24C17.194 24 19.486 22.9967 21.1662 21.3663L21.3661 21.1664Z" fill="black"/>
</svg>
