<svg width="32" height="32" viewBox="0 0 32 32" fill="none" xmlns="http://www.w3.org/2000/svg">
<path d="M5.33334 29.3333C5.33334 23.4423 10.109 18.6667 16 18.6667C21.8911 18.6667 26.6667 23.4423 26.6667 29.3333H24C24 24.9151 20.4183 21.3333 16 21.3333C11.5817 21.3333 8.00001 24.9151 8.00001 29.3333H5.33334ZM16 17.3333C11.58 17.3333 8.00001 13.7533 8.00001 9.33334C8.00001 4.91334 11.58 1.33334 16 1.33334C20.42 1.33334 24 4.91334 24 9.33334C24 13.7533 20.42 17.3333 16 17.3333ZM16 14.6667C18.9467 14.6667 21.3333 12.28 21.3333 9.33334C21.3333 6.38668 18.9467 4.00001 16 4.00001C13.0533 4.00001 10.6667 6.38668 10.6667 9.33334C10.6667 12.28 13.0533 14.6667 16 14.6667Z" fill="white"/>
</svg>
