<svg width="32" height="32" viewBox="0 0 32 32" fill="none" xmlns="http://www.w3.org/2000/svg">
<path d="M24.0413 22.1557L29.7516 27.866L27.866 29.7516L22.1557 24.0413C20.1025 25.684 17.4987 26.6667 14.6667 26.6667C8.04266 26.6667 2.66666 21.2907 2.66666 14.6667C2.66666 8.04266 8.04266 2.66666 14.6667 2.66666C21.2907 2.66666 26.6667 8.04266 26.6667 14.6667C26.6667 17.4987 25.684 20.1025 24.0413 22.1557ZM21.3663 21.1664C22.9967 19.4861 24 17.1941 24 14.6667C24 9.50999 19.8233 5.33332 14.6667 5.33332C9.50999 5.33332 5.33332 9.50999 5.33332 14.6667C5.33332 19.8233 9.50999 24 14.6667 24C17.1941 24 19.4861 22.9967 21.1664 21.3663L21.3663 21.1664Z" fill="white"/>
</svg>
