<svg width="180" height="100" viewBox="0 0 180 100" fill="none" xmlns="http://www.w3.org/2000/svg">
<path d="M152.905 54.9341V64.9591H155.799V58.2795H166.33V64.9591H169.221V54.9515L152.905 54.9341ZM155.477 51.6913H166.603C168.148 51.35 169.297 49.8347 169.621 48.3688H152.459C152.78 49.8352 153.941 51.35 155.477 51.6913ZM144.143 64.9655C145.602 64.2784 146.387 63.0898 146.688 61.6989H133.709L133.717 48.3771L130.808 48.3862V64.9655H144.142M109.175 51.6465H119.451C121 51.1464 122.3 49.8347 122.621 48.3817H106.299V58.1793H119.658V61.6175L109.179 61.6266C107.537 62.1354 106.144 63.3652 105.449 64.9788L106.299 64.9614H122.528V54.9218H109.179V51.646M83.8102 51.678H94.9278C96.4752 51.3349 97.6248 49.8215 97.9476 48.3542H80.7896C81.1099 49.8215 82.2768 51.3354 83.8094 51.678M83.8098 58.2305H94.9274C96.4747 57.892 97.6244 56.3762 97.9472 54.9081H80.7896C81.1099 56.3721 82.2772 57.891 83.8098 58.2305ZM83.8098 64.9637H94.9274C96.4747 64.622 97.6244 63.1071 97.9472 61.6408H80.7896C81.1099 63.1076 82.2772 64.622 83.8098 64.9637ZM54.875 48.3945C55.2093 49.8434 56.3384 51.3244 57.8874 51.6954H62.565L62.8039 51.8006V64.9312H65.7274V51.8006L65.9929 51.6954H70.6788C72.2451 51.2471 73.3499 49.8434 73.6785 48.3945V48.3624H54.875V48.3945Z" fill="white"/>
<path d="M34.9229 77.1667L41.7899 34.2583C48.3344 34.2583 50.3999 35.055 50.6969 38.3083C50.6969 38.3083 55.0874 36.475 57.3014 32.795C48.6614 28.345 39.9764 28.1283 39.9764 28.1283L34.9094 34.985H34.9214L29.8544 28.1283C29.8544 28.1283 21.1544 28.3283 12.5294 32.795C14.7419 36.49 19.1339 38.3083 19.1339 38.3083C19.4339 35.0533 21.4949 34.255 27.9839 34.25L34.9199 77.1667M34.9184 26.1667C41.9039 26.1067 49.8989 27.3667 58.0844 31.3333C59.1794 29.145 59.4599 28.1783 59.4599 28.1783C50.5124 24.245 42.1349 22.8983 34.9199 22.865C27.7199 22.8983 19.3259 24.245 10.3799 28.1783C10.3799 28.1783 10.7789 29.37 11.7539 31.3333C19.9379 27.37 27.9344 26.11 34.9199 26.1667" fill="white"/>
</svg>
